<?xml version="1.0" encoding="UTF-8"?><svg id="Layer_33" xmlns="http://www.w3.org/2000/svg" viewBox="0 0 64 64"><path d="m45,19.77v-4.77c0-6.627-5.373-12-12-12h-2c-6.627,0-12,5.373-12,12v4.77h26Z" style="fill:#58595b;"/><path d="m24.25,34c.89,3.45,4.02,6,7.75,6s6.86-2.55,7.75-6h-15.5Z" style="fill:#ffa087;"/><path d="m45.948,21.479c.015.084.018.171.026.257-.008-.086-.011-.173-.026-.257Z" style="fill:#9bc9ff;"/><path d="m45.992,22.22c.003-.035-.005-.067-.004-.102-.004.097-.016.191-.029.286.009-.062.028-.12.033-.184Z" style="fill:#9bc9ff;"/><path d="m45.782,20.889c.026.066.042.136.063.204-.022-.068-.037-.138-.063-.204Z" style="fill:#9bc9ff;"/><rect x="44" y="54" width="10" height="7" style="fill:#ffa087;"/><path d="m45.902,22.722c-.016.063-.037.122-.057.183.02-.061.041-.121.057-.183Z" style="fill:#9bc9ff;"/><path d="m45.504,20.353c.023.034.038.074.059.109-.021-.036-.036-.075-.059-.109Z" style="fill:#9bc9ff;"/><path d="m42.765,34.289c-1.057,4.98-5.472,8.711-10.765,8.711s-9.708-3.731-10.765-8.711c-6.402,1.287-11.235,6.931-11.235,13.711v3h10v10h24v-10h10v-3c0-6.78-4.833-12.424-11.235-13.711Z" style="fill:#ff6243;"/><path d="m42.765,34.289c-1.057,4.98-5.472,8.711-10.765,8.711s-9.708-3.731-10.765-8.711c-6.402,1.287-11.235,6.931-11.235,13.711v3h.044c.254-3.586,1.861-6.797,4.312-9.129,2.615-2.488,6.74-1.965,8.958.883,2.013,2.585,5.154,4.246,8.686,4.246s6.673-1.661,8.686-4.246c2.218-2.848,6.343-3.371,8.958-.883,2.451,2.332,4.057,5.543,4.312,9.129h.044v-3c0-6.78-4.833-12.424-11.235-13.711Z" style="fill:#ff5023;"/><rect x="10" y="54" width="10" height="7" style="fill:#ffa087;"/><path d="m32,43c5.293,0,9.708-3.731,10.765-8.711-.652-.131-1.314-.232-1.995-.269-.26-.01-.51-.02-.77-.02h-.25c-.89,3.45-4.02,6-7.75,6s-6.86-2.55-7.75-6h-.25c-.26,0-.51.01-.77.02-.681.037-1.343.138-1.995.269,1.057,4.98,5.472,8.711,10.765,8.711Z" style="fill:#ffcd00;"/><path d="m45.504,20.353c-.119-.181-.257-.347-.411-.498.009.009.018.016.027.024.143.143.272.303.384.473Z" style="fill:#9bc9ff;"/><path d="m46,22c0-.09-.019-.176-.027-.264.011.126.02.252.015.382.002-.04.012-.077.012-.118Z" style="fill:#9bc9ff;"/><path d="m42.831,25h.169c1.339,0,2.46-.883,2.846-2.094-.415,1.237-1.653,2.094-3.015,2.094Z" style="fill:#9bc9ff;"/><path d="m45.959,22.403c-.015.108-.03.216-.057.319.026-.104.042-.211.057-.319Z" style="fill:#9bc9ff;"/><path d="m45.564,20.462c.082.136.158.277.218.426-.06-.15-.136-.289-.218-.426Z" style="fill:#9bc9ff;"/><path d="m45.845,21.093c.04.126.079.253.102.386-.023-.133-.062-.26-.102-.386Z" style="fill:#9bc9ff;"/><path d="m42,19v6h.831c1.362,0,2.6-.857,3.015-2.094.019-.061.041-.121.057-.183.027-.103.042-.211.057-.319.013-.094.025-.189.029-.286.005-.13-.003-.256-.015-.382-.008-.086-.011-.173-.026-.257-.024-.133-.062-.26-.102-.386-.022-.068-.037-.139-.063-.204-.06-.149-.136-.29-.218-.426-.021-.035-.037-.075-.059-.109-.113-.171-.241-.33-.384-.473-.009-.009-.018-.016-.027-.024-.541-.528-1.278-.856-2.093-.856h-1Z" style="fill:#ffa087;"/><path d="m40,17h-.667c-2.164,0-4.269-.702-6-2l-1.333-1-1.333,1c-1.731,1.298-3.836,2-6,2h-.667c-1.105,0-2,.895-2,2v6c0,5.523,4.477,10,10,10s10-4.477,10-10v-6c0-1.105-.895-2-2-2Z" style="fill:#ffac96;"/><path d="m21,19c-1.657,0-3,1.343-3,3s1.343,3,3,3h1v-6h-1Z" style="fill:#ffa087;"/><rect x="44" y="51" width="10" height="3" style="fill:#ffcd00;"/><rect x="10" y="51" width="10" height="3" style="fill:#ffcd00;"/><path d="m27.6,27.7c-.332.442-.242,1.069.2,1.4,1.236.928,2.718,1.391,4.2,1.391s2.964-.463,4.2-1.391c.442-.331.531-.958.2-1.4-.331-.441-.957-.532-1.4-.2-1.767,1.324-4.233,1.324-6,0-.443-.332-1.069-.241-1.4.2Z" style="fill:#231f20;"/><path d="m40.81,33.02c-.27-.01-.54-.02-.81-.02h-.47c1.9-1.79,3.17-4.25,3.42-7h.05c2.21,0,4-1.79,4-4,0-1.01-.39-1.91-1-2.62v-4.38c0-7.17-5.83-13-13-13h-2c-7.17,0-13,5.83-13,13v4.38c-.61.71-1,1.61-1,2.62,0,2.21,1.79,4,4,4h.05c.25,2.75,1.52,5.21,3.42,7h-.47c-.27,0-.54.01-.82.02-7.95.43-14.18,7.01-14.18,14.98v13c0,.55.45,1,1,1h44c.55,0,1-.45,1-1v-13c0-7.97-6.23-14.55-14.19-14.98Zm4.19-11.02c0,1.1-.9,2-2,2v-4c1.1,0,2,.9,2,2Zm-24,2c-1.1,0-2-.9-2-2s.9-2,2-2v4Zm.18-6h-.18c-.35,0-.68.06-1,.14v-3.14c0-6.07,4.93-11,11-11h2c6.07,0,11,4.93,11,11v3.14c-.32-.08-.65-.14-1-.14h-.18c-.42-1.16-1.52-2-2.82-2h-.67c-1.93,0-3.85-.64-5.4-1.8l-1.33-1c-.36-.27-.84-.27-1.2,0l-1.33,1c-1.55,1.16-3.47,1.8-5.4,1.8h-.67c-1.3,0-2.4.84-2.82,2Zm1.82,7v-6c0-.55.45-1,1-1h.67c2.36,0,4.71-.78,6.6-2.2l.73-.55.73.55c1.89,1.42,4.24,2.2,6.6,2.2h.67c.55,0,1,.45,1,1v6c0,4.96-4.04,9-9,9s-9-4.04-9-9Zm15.32,10c-1.14,2.4-3.58,4-6.32,4s-5.18-1.6-6.32-4h1.76c1.39.64,2.93,1,4.56,1s3.17-.36,4.56-1h1.76Zm-15.05.02c.08,0,.16,0,.25-.01,1.26,3.56,4.64,5.99,8.48,5.99s7.22-2.43,8.48-5.99c.08.01.16.01.24.01.26.01.52.05.79.08-1.33,4.05-5.17,6.9-9.51,6.9s-8.18-2.85-9.51-6.9c.26-.03.52-.07.78-.08Zm-4.27,24.98h-8v-5h8v5Zm0-7h-8v-1h8v1Zm34,7h-8v-5h8v5Zm0-7h-8v-1h8v1Zm0-3h-9c-.55,0-1,.45-1,1v9h-22v-9c0-.55-.45-1-1-1h-9v-2c0-5.95,4.01-10.99,9.51-12.52,1.52,4.99,6.19,8.52,11.49,8.52s9.97-3.53,11.49-8.52c5.51,1.53,9.51,6.58,9.51,12.52v2Z" style="fill:#231f20;"/><path d="m36,23c.552,0,1-.448,1-1v-1c0-.552-.448-1-1-1s-1,.448-1,1v1c0,.552.448,1,1,1Z" style="fill:#231f20;"/><path d="m28,23c.552,0,1-.448,1-1v-1c0-.552-.448-1-1-1s-1,.448-1,1v1c0,.552.448,1,1,1Z" style="fill:#231f20;"/></svg>