<?xml version="1.0" encoding="UTF-8"?><svg id="Layer_22" xmlns="http://www.w3.org/2000/svg" viewBox="0 0 64 64"><path d="m20,47c0-4.367-.639-8.414-1.718-11.772-4.878,2.189-8.282,7.082-8.282,12.772v13h10v-14Z" style="fill:#ffbcab;"/><path d="m45.718,35.228c-1.078,3.358-1.718,7.405-1.718,11.772v14h10v-13c0-5.69-3.405-10.583-8.282-12.772Z" style="fill:#ffbcab;"/><path d="m25,15h13c2.209,0,4,1.791,4,4h1c.772,0,1.468.3,2,.779v-4.779c0-5.523-4.477-10-10-10h-7.754c-2.15,0-4.285-.347-6.325-1.026l-2.921-.974v12c0,2.209,1.791,4,4,4v-1c0-1.657,1.343-3,3-3Z" style="fill:#ff9811;"/><path d="m44,47c0-4.367.639-8.414,1.718-11.772-1.526-.685-3.192-1.113-4.948-1.208-.26-.01-.51-.02-.77-.02h-.13c-.68,5.12-3.95,9-7.87,9s-7.19-3.88-7.87-9h-.13c-.26,0-.51.01-.77.02-1.756.095-3.422.523-4.948,1.208,1.078,3.358,1.718,7.405,1.718,11.772v14h24v-14Z" style="fill:#ed1c24;"/><path d="m23.23,37.02c.26-.01.51-.02.77-.02h.13c.68,5.12,3.95,9,7.87,9s7.19-3.88,7.87-9h.13c.26,0,.51.01.77.02,1.479.08,2.889.408,4.211.916.215-.943.461-1.848.737-2.708-1.526-.685-3.192-1.113-4.948-1.208-.26-.01-.51-.02-.77-.02h-.13c-.68,5.12-3.95,9-7.87,9s-7.19-3.88-7.87-9h-.13c-.26,0-.51.01-.77.02-1.756.095-3.422.523-4.948,1.208.276.859.522,1.764.737,2.708,1.322-.507,2.731-.835,4.211-.916Z" style="fill:#cf1820;"/><path d="m24.13,34c.68,5.12,3.95,9,7.87,9s7.19-3.88,7.87-9h-15.74Z" style="fill:#ffb8a5;"/><path d="m42,19v6h1c1.657,0,3-1.343,3-3,0-.885-.39-1.672-1-2.221v.221-.221c-.532-.479-1.228-.779-2-.779h-1Z" style="fill:#ffb8a5;"/><path d="m38,15h-13c-1.657,0-3,1.343-3,3v7c0,5.523,4.477,10,10,10s10-4.477,10-10v-6c0-2.209-1.791-4-4-4Z" style="fill:#ffbcab;"/><path d="m18,22c0,1.657,1.343,3,3,3h1v-6h-1c-1.657,0-3,1.343-3,3Z" style="fill:#ffb8a5;"/><path d="m27.6,27.7c-.332.442-.242,1.069.2,1.4,1.236.928,2.718,1.391,4.2,1.391s2.964-.463,4.2-1.391c.442-.331.531-.958.2-1.4-.331-.44-.957-.532-1.4-.2-1.767,1.324-4.233,1.324-6,0-.443-.333-1.069-.241-1.4.2Z" style="fill:#231f20;"/><path d="m40.81,33.02c-.27-.01-.54-.02-.81-.02h-.47c1.9-1.79,3.17-4.25,3.42-7h.05c2.21,0,4-1.79,4-4,0-1.01-.39-1.91-1-2.62v-4.38c0-6.07-4.93-11-11-11h-7.75c-2.05,0-4.07-.33-6.01-.98l-2.92-.97c-.31-.1-.64-.05-.9.14-.27.19-.42.49-.42.81v12c0,1.49.67,2.82,1.71,3.73-1.03.73-1.71,1.92-1.71,3.27,0,2.21,1.79,4,4,4h.05c.25,2.75,1.52,5.21,3.42,7h-.47c-.27,0-.54.01-.82.02-7.95.43-14.18,7.01-14.18,14.98v13c0,.55.45,1,1,1h44c.55,0,1-.45,1-1v-13c0-7.97-6.23-14.55-14.19-14.98Zm4.19-11.02c0,1.1-.9,2-2,2v-4c1.1,0,2,.9,2,2Zm-24,2c-1.1,0-2-.9-2-2s.9-2,2-2v4Zm.02-6.18c-1.17-.41-2.02-1.51-2.02-2.82V4.39l1.6.53c2.15.72,4.38,1.08,6.65,1.08h7.75c4.96,0,9,4.04,9,9v3.14c-.32-.08-.65-.14-1-.14h-.1c-.47-2.28-2.49-4-4.9-4h-13c-2.14,0-3.89,1.7-3.98,3.82Zm1.98,7.18v-7c0-1.1.9-2,2-2h13c1.65,0,3,1.35,3,3v6c0,4.96-4.04,9-9,9s-9-4.04-9-9Zm15.67,10c-.9,4.12-3.59,7-6.67,7s-5.77-2.88-6.67-7h2.11c1.39.64,2.93,1,4.56,1s3.17-.36,4.56-1h2.11Zm-19.67,25h-8v-12c0-4.85,2.67-9.1,6.64-11.33.88,3.14,1.36,6.67,1.36,10.33v13Zm24-13v13h-22v-13c0-3.96-.52-7.81-1.51-11.2,1.19-.44,2.46-.71,3.78-.78h.02c1.01,5.25,4.57,8.98,8.71,8.98s7.7-3.73,8.71-8.98h.01c1.32.07,2.59.34,3.78.78-.98,3.39-1.5,7.24-1.5,11.2Zm10,13h-8v-13c0-3.66.48-7.19,1.36-10.33,3.97,2.23,6.64,6.48,6.64,11.33v12Z" style="fill:#231f20;"/><path d="m36,23c.552,0,1-.448,1-1v-1c0-.552-.448-1-1-1s-1,.448-1,1v1c0,.552.448,1,1,1Z" style="fill:#231f20;"/><path d="m28,23c.552,0,1-.448,1-1v-1c0-.552-.448-1-1-1s-1,.448-1,1v1c0,.552.448,1,1,1Z" style="fill:#231f20;"/></svg>