<?xml version="1.0" encoding="UTF-8"?><svg id="Layer_15" xmlns="http://www.w3.org/2000/svg" viewBox="0 0 64 64"><path d="m19,19.77v-4.77c0-6.63,5.37-12,12-12h2c6.63,0,12,5.37,12,12v4.77h-26Z" style="fill:#414042;"/><path d="m25.29,34c.86,2.89,3.53,7,6.71,7s5.85-4.11,6.71-7h-13.42Z" style="fill:#ffa087;"/><rect x="10" y="51" width="10" height="10" style="fill:#ffa087;"/><rect x="44" y="51" width="10" height="10" style="fill:#ffa087;"/><path d="m40.77,34.02c-.26-.01-.51-.02-.77-.02h-1.29c-.86,2.89-3.53,7-6.71,7s-5.85-4.11-6.71-7h-1.29c-.26,0-.51.01-.77.02-7.37.4-13.23,6.51-13.23,13.98v3h10v10h24v-10h10v-3c0-7.47-5.86-13.58-13.23-13.98Z" style="fill:#6d6e71;"/><path d="m40.77,34.02c-.26-.01-.51-.02-.77-.02h-1.29c-.86,2.89-3.53,7-6.71,7s-5.85-4.11-6.71-7h-1.29c-.26,0-.51.01-.77.02-7.37.4-13.23,6.51-13.23,13.98v3c0-7.47,5.86-13.58,13.23-13.98.26-.01.51-.02.77-.02h1.29c.86,2.89,3.53,7,6.71,7s5.85-4.11,6.71-7h1.29c.26,0,.51.01.77.02,7.37.4,13.23,6.51,13.23,13.98v-3c0-7.47-5.86-13.58-13.23-13.98Z" style="fill:#58595b;"/><path d="m43,25c1.657,0,3-1.343,3-3s-1.343-3-3-3h-1v6h1Z" style="fill:#ffa087;"/><path d="m32,17l-10-2v10c0,5.523,4.477,10,10,10s10-4.477,10-10v-10l-10,2Z" style="fill:#ffac96;"/><path d="m18,22c0,1.657,1.343,3,3,3h1v-6h-1c-1.657,0-3,1.343-3,3Z" style="fill:#ffa087;"/><path d="m27.601,27.7c-.332.442-.242,1.068.199,1.4,1.237.928,2.719,1.392,4.2,1.392s2.963-.464,4.2-1.392c.441-.332.531-.958.199-1.4-.331-.442-.957-.531-1.4-.2-1.766,1.325-4.232,1.325-5.998,0-.443-.332-1.069-.242-1.4.2Z" style="fill:#231f20;"/><path d="m40.81,33.02c-.27-.01-.54-.02-.81-.02h-.47c1.9-1.79,3.17-4.25,3.42-7h.05c2.21,0,4-1.79,4-4,0-1.01-.39-1.91-1-2.62v-4.38c0-7.17-5.83-13-13-13h-2c-7.17,0-13,5.83-13,13v4.38c-.61.71-1,1.61-1,2.62,0,2.21,1.79,4,4,4h.05c.25,2.75,1.52,5.21,3.42,7h-.47c-.27,0-.54.01-.82.02-7.95.43-14.18,7.01-14.18,14.98v13c0,.55.45,1,1,1h44c.55,0,1-.45,1-1v-13c0-7.97-6.23-14.55-14.19-14.98Zm4.19-11.02c0,1.1-.9,2-2,2v-4c1.1,0,2,.9,2,2Zm-24,2c-1.1,0-2-.9-2-2s.9-2,2-2v4Zm.37-9.77c-.24.19-.37.47-.37.77v3c-.35,0-.68.06-1,.14v-3.14c0-6.07,4.93-11,11-11h2c6.07,0,11,4.93,11,11v3.14c-.32-.08-.65-.14-1-.14v-3c0-.3-.13-.58-.37-.77-.23-.19-.53-.27-.83-.21l-9.8,1.96-9.8-1.96c-.3-.06-.6.02-.83.21Zm1.63,10.77v-8.78l8.8,1.76c.13.03.27.03.4,0l8.8-1.76v8.78c0,4.96-4.04,9-9,9s-9-4.04-9-9Zm14.27,10c-1.07,2.4-3.13,5-5.27,5s-4.2-2.6-5.27-5h.71c1.39.64,2.93,1,4.56,1s3.17-.36,4.56-1h.71Zm-18.27,25h-8v-8h8v8Zm34,0h-8v-8h8v8Zm0-10h-9c-.55,0-1,.45-1,1v9h-22v-9c0-.55-.45-1-1-1h-9v-2c0-6.91,5.4-12.61,12.27-12.98.25-.01.48-.02.73-.02h.57c1.1,2.97,3.82,7,7.43,7s6.33-4.03,7.43-7h.57c.25,0,.48.01.72.02,6.88.37,12.28,6.07,12.28,12.98v2Z" style="fill:#231f20;"/><path d="m36,23c.553,0,1-.448,1-1v-1c0-.552-.447-1-1-1s-1,.448-1,1v1c0,.552.447,1,1,1Z" style="fill:#231f20;"/><path d="m28,23c.553,0,1-.448,1-1v-1c0-.552-.447-1-1-1s-1,.448-1,1v1c0,.552.447,1,1,1Z" style="fill:#231f20;"/></svg>