<?xml version="1.0" encoding="UTF-8"?><svg id="Layer_18" xmlns="http://www.w3.org/2000/svg" viewBox="0 0 64 64"><rect x="44" y="51" width="10" height="10" style="fill:#ffb8a5;"/><path d="m19,19.77v-9.77c0-2.209,1.791-4,4-4h2c.83,0,1.58.34,2.12.88s.88,1.29.88,2.12c0-3.31,2.69-6,6-6h11v16.77h-26Z" style="fill:#ff9811;"/><path d="m23.22,34c.91,4.01,4.5,7,8.78,7s7.87-2.99,8.78-7l-.01.02c-.26-.01-.51-.02-.77-.02h-3.65c-1.31.64-2.79,1-4.35,1s-3.04-.36-4.35-1h-3.65c-.26,0-.51.01-.77.02l-.01-.02Z" style="fill:#ffb8a5;"/><path d="m54,48v3h-10v10h-24v-10h-10v-3c0-6.34,4.22-11.68,10-13.4,1.03-.31,2.11-.52,3.23-.58.42,1.84,1.41,3.46,2.77,4.68,1.59,1.43,3.69,2.3,6,2.3,1.16,0,2.26-.22,3.27-.61,1.01-.4,1.93-.97,2.73-1.69,1.36-1.22,2.35-2.84,2.77-4.68,1.12.06,2.2.27,3.23.58,5.78,1.72,10,7.06,10,13.4Z" style="fill:#006df0;"/><path d="m44,34.596v16.404h10v-3c0-6.336-4.222-11.68-10-13.404Z" style="fill:#2488ff;"/><path d="m23.226,34.02c-1.117.061-2.193.267-3.226.576v26.404h6v-22.301c-1.36-1.218-2.352-2.838-2.774-4.679Z" style="fill:#2488ff;"/><path d="m32,41v20h6v-22.301c-1.594,1.428-3.694,2.301-6,2.301Z" style="fill:#2488ff;"/><rect x="10" y="51" width="10" height="10" style="fill:#ffb8a5;"/><path d="m43,25c1.657,0,3-1.343,3-3s-1.343-3-3-3h-1v6h1Z" style="fill:#ffb8a5;"/><path d="m42,16v9c0,5.52-4.48,10-10,10s-10-4.48-10-10v-9h3.01l2.99-2,3.11,2h10.89Z" style="fill:#ffc8b9;"/><path d="m18,22c0,1.657,1.343,3,3,3h1v-6h-1c-1.657,0-3,1.343-3,3Z" style="fill:#ffb8a5;"/><path d="m27.6,27.7c-.332.442-.242,1.069.2,1.4,1.236.928,2.718,1.391,4.2,1.391s2.964-.463,4.2-1.391c.442-.331.531-.958.2-1.4-.33-.441-.956-.532-1.4-.2-1.767,1.324-4.233,1.324-6,0-.442-.332-1.069-.241-1.4.2Z" style="fill:#231f20;"/><path d="m36,23c.552,0,1-.448,1-1v-1c0-.552-.448-1-1-1s-1,.448-1,1v1c0,.552.448,1,1,1Z" style="fill:#231f20;"/><path d="m28,23c.552,0,1-.448,1-1v-1c0-.552-.448-1-1-1s-1,.448-1,1v1c0,.552.448,1,1,1Z" style="fill:#231f20;"/><path d="m44,34.6c-1.03-.31-2.11-.52-3.23-.58-.42,1.84-1.41,3.46-2.77,4.68-.8.72-1.72,1.29-2.73,1.69-1.01.39-2.11.61-3.27.61-2.31,0-4.41-.87-6-2.3-1.36-1.22-2.35-2.84-2.77-4.68-1.12.06-2.2.27-3.23.58-5.78,1.72-10,7.06-10,13.4v3c0-6.34,4.22-11.68,10-13.4.01-.003.021-.006.031-.009,1.591-.475,3.281.293,4.085,1.746.492.89,1.132,1.688,1.885,2.363,1.59,1.43,3.69,2.3,6,2.3,1.16,0,2.26-.22,3.27-.61,1.01-.4,1.93-.97,2.73-1.69.753-.675,1.392-1.473,1.885-2.363.804-1.453,2.494-2.221,4.085-1.746.01.003.021.006.031.009,5.78,1.72,10,7.06,10,13.4v-3c0-6.34-4.22-11.68-10-13.4Z" style="fill:#005ece;"/><path d="m40.81,33.02c-.27-.01-1.28-.02-1.28-.02,1.9-1.79,3.17-4.25,3.42-7h.05c2.21,0,4-1.79,4-4,0-1.01-.39-1.91-1-2.62V3c0-.55-.45-1-1-1h-11c-2.79,0-5.21,1.65-6.33,4.02-.74-.66-1.68-1.02-2.67-1.02h-2c-2.76,0-5,2.24-5,5v9.38c-.61.71-1,1.61-1,2.62,0,2.21,1.79,4,4,4h.05c.25,2.75,1.52,5.21,3.42,7,0,0-1.01.01-1.29.02-7.95.43-14.18,7.01-14.18,14.98v13c0,.55.45,1,1,1h44c.55,0,1-.45,1-1v-13c0-7.97-6.23-14.55-14.19-14.98Zm4.19-11.02c0,1.1-.9,2-2,2v-4c1.1,0,2,.9,2,2Zm-24,2c-1.1,0-2-.9-2-2s.9-2,2-2v4Zm0-8v2c-.35,0-.68.06-1,.14v-8.14c0-1.65,1.35-3,3-3h2c.53,0,1.03.21,1.41.59.38.38.59.88.59,1.41,0,.55.45,1,1,1s1-.45,1-1c0-2.76,2.24-5,5-5h10v14.14c-.32-.08-.65-.14-1-.14v-2c0-.55-.45-1-1-1h-10.6l-2.86-1.84c-.33-.22-.76-.21-1.1.01l-2.74,1.83h-2.7c-.55,0-1,.45-1,1Zm2,9v-8h2.01c.19,0,.39-.06.55-.17l2.45-1.63,2.56,1.64c.16.1.35.16.54.16h9.89v8c0,4.96-4.04,9-9,9s-9-4.04-9-9Zm-4,35h-8v-8h8v8Zm0-10h-8v-2c0-5.39,3.29-10.03,8-11.99v13.99Zm6,10h-4v-24.65c.49-.11.98-.19,1.49-.25.51,1.54,1.38,2.91,2.51,4.01v20.89Zm6,0h-4v-19.36c1.21.7,2.57,1.16,4,1.3v18.06Zm6,0h-4v-18.06c1.43-.14,2.79-.6,4-1.3v19.36Zm-5-20c-3.27,0-6.21-2.04-7.42-5h2.86c1.39.64,2.93,1,4.56,1s3.17-.36,4.56-1h2.86c-1.21,2.96-4.15,5-7.42,5Zm11,20h-4v-20.89c1.13-1.1,2-2.47,2.51-4.01.51.06,1,.14,1.49.26v24.64Zm10,0h-8v-8h8v8Zm0-10h-8v-13.99c4.71,1.96,8,6.6,8,11.99v2Z" style="fill:#231f20;"/></svg>