<?xml version="1.0" encoding="UTF-8"?><svg id="Layer_16" xmlns="http://www.w3.org/2000/svg" viewBox="0 0 64 64"><path d="m54,48v3h-10v10h-24v-10h-10v-3c0-7.47,5.86-13.58,13.23-13.98.91,4,4.5,6.98,8.77,6.98s7.86-2.98,8.77-6.98c7.37.4,13.23,6.51,13.23,13.98Z" style="fill:#ffcd00;"/><path d="m40.77,34.02c-.91,4-4.5,6.98-8.77,6.98s-7.86-2.98-8.77-6.98c-7.37.4-13.23,6.51-13.23,13.98v3c0-5.097,2.729-9.561,6.804-12.01,2.639-1.586,6.151-1.037,8.004,1.421,1.643,2.18,4.257,3.589,7.193,3.589s5.55-1.409,7.193-3.589c1.853-2.459,5.365-3.007,8.004-1.421,4.075,2.449,6.804,6.913,6.804,12.01v-3c0-7.47-5.86-13.58-13.23-13.98Z" style="fill:#ebbf00;"/><path d="m36.35,34h3.65c.26,0,.51.01.77.02l.01-.02c-.91,4.01-4.5,7-8.78,7s-7.87-2.99-8.78-7l.01.02c.26-.01.51-.02.77-.02h3.65c1.31.64,2.79,1,4.35,1s3.04-.36,4.35-1Z" style="fill:#ff9478;"/><polygon points="20 52 20 51 10 51 10 61 20 61 20 52" style="fill:#ff9478;"/><polygon points="44 52 44 61 54 61 54 51 44 51 44 52" style="fill:#ff9478;"/><path d="m15.472,17.126c-.935.841-.867,2.329.14,3.083l2.388,1.791c0-1.657,1.343-3,3-3h1v-.146c0-2.23,2.347-3.681,4.342-2.683l1.186.593c2.815,1.408,6.129,1.408,8.944,0l1.186-.593c1.995-.997,4.342.453,4.342,2.683v.146h1c1.657,0,3,1.343,3,3l2.388-1.791c1.006-.755,1.075-2.242.14-3.083-.408-.367-.763-.736-.848-1.13-.231-1.066,1.313-2.718.869-3.695-.448-.985-2.714-.914-3.353-1.786-.636-.868.119-3.003-.682-3.736-.792-.723-2.855.217-3.784-.352-.912-.558-1.009-2.824-2.031-3.211-.997-.378-2.572,1.251-3.651,1.055-1.044-.189-1.944-2.271-3.047-2.271s-2.003,2.083-3.047,2.271c-1.08.195-2.655-1.433-3.651-1.056-1.022.387-1.118,2.653-2.031,3.211-.929.568-2.992-.372-3.784.351-.802.732-.046,2.868-.682,3.735-.639.872-2.906.801-3.353,1.786-.444.977,1.1,2.63.869,3.696-.086.395-.441.764-.849,1.13Z" style="fill:#414042;"/><path d="m43,19h-1v6h1c1.657,0,3-1.343,3-3s-1.343-3-3-3Z" style="fill:#ff9478;"/><path d="m37.658,16.171l-1.186.593c-2.815,1.408-6.129,1.408-8.944,0l-1.186-.593c-1.995-.997-4.342.453-4.342,2.683v6.146c0,5.523,4.477,10,10,10s10-4.477,10-10v-6.146c0-2.23-2.347-3.681-4.342-2.683Z" style="fill:#ffa087;"/><path d="m21,19c-1.657,0-3,1.343-3,3s1.343,3,3,3h1v-6h-1Z" style="fill:#ff9478;"/><rect x="24" y="47" width="16" height="10" style="fill:#7ed63e;"/><path d="m27.601,27.7c-.332.442-.242,1.068.199,1.4,1.237.928,2.719,1.392,4.2,1.392s2.963-.464,4.2-1.392c.441-.332.531-.958.199-1.4-.331-.442-.956-.531-1.4-.2-1.766,1.325-4.232,1.325-5.998,0-.442-.332-1.068-.242-1.4.2Z" style="fill:#231f20;"/><path d="m40.81,33.02c-.27-.01-.54-.02-.81-.02h-.47c1.9-1.79,3.17-4.25,3.42-7h.05c2.02,0,3.68-1.51,3.95-3.46l2.04-1.53c.72-.54,1.15-1.37,1.19-2.27s-.32-1.76-.98-2.36c-.45-.4-.53-.55-.54-.59-.04-.2.23-.8.39-1.15.39-.86.83-1.83.41-2.75-.42-.94-1.45-1.25-2.35-1.52-.37-.11-.99-.3-1.11-.44-.1-.17-.09-.81-.09-1.2.02-.94.03-2-.72-2.69-.75-.68-1.8-.57-2.72-.48-.4.04-1.05.11-1.22.02-.15-.12-.38-.71-.52-1.07-.34-.87-.72-1.87-1.68-2.23-.93-.35-1.86.13-2.69.55-.33.17-.96.48-1.13.46-.18-.05-.6-.52-.86-.8-.63-.7-1.34-1.49-2.37-1.49s-1.74.79-2.37,1.49c-.26.28-.68.75-.85.8-.2.02-.81-.29-1.14-.46-.83-.42-1.76-.9-2.69-.55-.96.36-1.34,1.36-1.68,2.23-.14.36-.37.95-.52,1.06-.17.1-.83.03-1.21-.01-.93-.1-1.98-.2-2.73.48-.75.69-.74,1.75-.72,2.69,0,.39.01,1.03-.09,1.19-.12.15-.74.34-1.11.45-.9.27-1.93.58-2.35,1.52-.42.92.02,1.89.41,2.75.16.35.43.95.39,1.14-.01.05-.09.2-.54.6-.66.6-1.02,1.46-.98,2.36s.47,1.73,1.19,2.27l2.04,1.53c.27,1.95,1.93,3.46,3.95,3.46h.05c.25,2.75,1.52,5.21,3.42,7h-.47c-.27,0-.54.01-.82.02-7.95.43-14.18,7.01-14.18,14.98v13c0,.55.45,1,1,1h44c.55,0,1-.45,1-1v-13c0-7.97-6.23-14.55-14.19-14.98Zm2.19-9.02v-4c1.1,0,2,.9,2,2s-.9,2-2,2Zm-22,0c-1.1,0-2-.9-2-2s.9-2,2-2v4Zm.1-6h-.1c-1.59,0-2.96.94-3.6,2.3l-1.19-.89c-.24-.18-.38-.46-.4-.76,0-.17.03-.51.33-.78.52-.46,1.01-.98,1.16-1.66.18-.83-.2-1.66-.53-2.4-.16-.35-.43-.93-.42-1.07.12-.15.74-.34,1.12-.46.77-.23,1.64-.49,2.14-1.18.5-.68.49-1.59.48-2.4-.01-.39-.02-1.04.05-1.17.17-.08.81-.02,1.19.02.81.08,1.73.18,2.46-.27.72-.44,1.05-1.29,1.34-2.05.15-.36.38-.98.5-1.07.2-.03.75.27,1.09.45.73.37,1.56.8,2.41.65.83-.15,1.44-.83,1.98-1.43.25-.28.71-.79.87-.83.2.04.66.55.91.83.54.6,1.15,1.28,1.98,1.43.85.15,1.68-.28,2.41-.65.34-.18.9-.47,1.05-.47.16.11.39.73.54,1.09.29.76.62,1.61,1.34,2.05.73.45,1.65.35,2.46.27.38-.04,1.02-.1,1.15-.05.11.16.1.82.09,1.21-.01.8-.02,1.72.48,2.4s1.37.94,2.14,1.18c.38.11,1,.3,1.1.4.03.19-.24.77-.4,1.12-.33.74-.71,1.57-.53,2.4.15.68.64,1.2,1.16,1.66.3.27.33.61.33.78-.02.3-.16.58-.4.76l-1.19.89c-.64-1.36-2.01-2.3-3.6-2.3h-.1c-.22-1.05-.86-1.97-1.8-2.55-1.18-.73-2.64-.8-3.89-.17l-1.19.59c-2.52,1.26-5.52,1.26-8.04,0l-1.19-.59c-1.25-.63-2.71-.56-3.89.17-.94.58-1.58,1.5-1.8,2.55Zm1.9,7v-6.15c0-.69.35-1.33.95-1.7.33-.2.68-.3,1.05-.3.3,0,.61.07.89.22l1.19.59c3.08,1.54,6.76,1.54,9.84,0l1.19-.59c.63-.32,1.34-.29,1.94.08.6.37.95,1.01.95,1.7v6.15c0,4.96-4.04,9-9,9s-9-4.04-9-9Zm16.42,10c-1.21,2.96-4.15,5-7.42,5s-6.21-2.04-7.42-5h2.86c1.39.64,2.93,1,4.56,1s3.17-.36,4.56-1h2.86Zm-20.42,25h-8v-8h8v8Zm34,0h-8v-8h8v8Zm0-10h-8v-3c0-.55-.45-1-1-1s-1,.45-1,1v13h-22v-13c0-.55-.45-1-1-1s-1,.45-1,1v3h-8v-2c0-6.64,4.99-12.15,11.49-12.9,1.32,4.1,5.11,6.9,9.51,6.9s8.19-2.79,9.51-6.9c6.5.75,11.49,6.26,11.49,12.9v2Z" style="fill:#231f20;"/><path d="m36,23c.553,0,1-.448,1-1v-1c0-.552-.447-1-1-1s-1,.448-1,1v1c0,.552.447,1,1,1Z" style="fill:#231f20;"/><path d="m28,23c.553,0,1-.448,1-1v-1c0-.552-.447-1-1-1s-1,.448-1,1v1c0,.552.447,1,1,1Z" style="fill:#231f20;"/><path d="m24,58h16c.553,0,1-.448,1-1v-10c0-.552-.447-1-1-1h-16c-.553,0-1,.448-1,1v10c0,.552.447,1,1,1Zm1-10h14v8h-14v-8Z" style="fill:#231f20;"/></svg>