<?xml version="1.0" encoding="UTF-8"?><svg id="Layer_49" xmlns="http://www.w3.org/2000/svg" viewBox="0 0 64 64"><path d="m20,19l-.876-7.008c-.597-4.775,3.126-8.992,7.938-8.992h2.938c3.31,0,6,2.69,6,6h0c0-1.657,1.343-3,3-3h.606c3.811,0,6.656,3.506,5.871,7.235l-1.268,6.025-24.21-.26Z" style="fill:#754c29;"/><path d="m36.35,34h3.65c.26,0,.51.01.77.02l.01-.02c-.91,4.01-4.5,7-8.78,7s-7.87-2.99-8.78-7l.01.02c.26-.01.51-.02.77-.02h12.35Z" style="fill:#ffb8a5;"/><rect x="44" y="51" width="10" height="10" style="fill:#ffbcab;"/><path d="m40.774,34.02c-.918,4-4.502,6.98-8.774,6.98s-7.857-2.98-8.774-6.98c-7.368.402-13.226,6.511-13.226,13.98v3h10v10h24v-10h10v-3c0-7.469-5.858-13.577-13.226-13.98Z" style="fill:#91dc5a;"/><path d="m40.774,34.02c-.918,4-4.502,6.98-8.774,6.98s-7.857-2.98-8.774-6.98c-7.368.402-13.226,6.511-13.226,13.98v3c0-5.096,2.728-9.56,6.801-12.008,2.639-1.586,6.151-1.039,8.005,1.42,1.644,2.18,4.256,3.588,7.193,3.588s5.549-1.408,7.193-3.588c1.854-2.459,5.366-3.006,8.005-1.42,4.074,2.449,6.801,6.912,6.801,12.008v-3c0-7.469-5.858-13.577-13.226-13.98Z" style="fill:#7ed63e;"/><rect x="10" y="51" width="10" height="10" style="fill:#ffbcab;"/><path d="m42,19v6h1c1.657,0,3-1.343,3-3,0-1.225-.737-2.275-1.79-2.741h0s0,0,0,0c-.371-.164-.779-.259-1.21-.259h-1Z" style="fill:#ffbcab;"/><path d="m39,16h-.157c-1.169,0-2.231-.679-2.722-1.74l-.12-.26-.232.233c-1.126,1.131-2.656,1.767-4.252,1.767h-6.516c-1.657,0-3,1.343-3,3v6c0,5.523,4.477,10,10,10s10-4.477,10-10v-6c0-1.657-1.343-3-3-3Z" style="fill:#ffb8a5;"/><path d="m21,19c-1.657,0-3,1.343-3,3s1.343,3,3,3h1v-6h-1Z" style="fill:#ffbcab;"/><path d="m27.601,27.7c-.332.442-.242,1.068.199,1.4,1.237.928,2.719,1.392,4.2,1.392s2.963-.464,4.2-1.392c.441-.332.531-.958.199-1.4-.331-.441-.957-.531-1.4-.2-1.766,1.325-4.232,1.325-5.998,0-.443-.332-1.069-.242-1.4.2Z" style="fill:#231f20;"/><path d="m40.81,33.02c-.27-.01-.54-.02-.81-.02h-.47c1.9-1.79,3.17-4.25,3.42-7h.05c2.21,0,4-1.79,4-4,0-1.33-.66-2.51-1.66-3.23l1.12-5.33c.43-2.07-.08-4.21-1.42-5.85-1.33-1.65-3.31-2.59-5.43-2.59h-.61c-1.02,0-1.96.39-2.67,1.02-1.12-2.37-3.54-4.02-6.33-4.02h-2.94c-2.58,0-5.04,1.11-6.74,3.04-1.71,1.94-2.51,4.52-2.19,7.08l.81,6.47c-1.16.7-1.94,1.96-1.94,3.41,0,2.21,1.79,4,4,4h.05c.25,2.75,1.52,5.21,3.42,7h-.47c-.27,0-.54.01-.82.02-7.95.43-14.18,7.01-14.18,14.98v13c0,.55.45,1,1,1h44c.55,0,1-.45,1-1v-13c0-7.97-6.23-14.55-14.19-14.98Zm2.19-9.02v-4c1.1,0,2,.9,2,2s-.9,2-2,2Zm-22,0c-1.1,0-2-.9-2-2s.9-2,2-2v4Zm.14-6h-.14c-.04,0-.08.01-.12.01l-.76-6.14c-.25-1.99.37-4,1.69-5.5,1.33-1.51,3.25-2.37,5.25-2.37h2.94c2.76,0,5,2.24,5,5,0,.55.45,1,1,1s1-.45,1-1c0-1.1.9-2,2-2h.61c1.51,0,2.93.67,3.88,1.85.95,1.17,1.32,2.7,1.01,4.18l-1.06,5.01c-.14-.01-.29-.04-.44-.04h-.14c-.45-1.72-2-3-3.86-3h-.16c-.77,0-1.49-.46-1.81-1.16l-.12-.26c-.14-.3-.41-.51-.74-.56-.31-.06-.65.04-.88.27l-.23.24c-.93.93-2.22,1.47-3.54,1.47h-6.52c-1.86,0-3.41,1.28-3.86,3Zm1.86,7v-6c0-1.1.9-2,2-2h6.52c1.53,0,3.04-.52,4.25-1.44.75.9,1.87,1.44,3.07,1.44h.16c1.1,0,2,.9,2,2v6c0,4.96-4.04,9-9,9s-9-4.04-9-9Zm16.42,10c-1.21,2.96-4.15,5-7.42,5s-6.21-2.04-7.42-5h2.86c1.39.64,2.93,1,4.56,1s3.17-.36,4.56-1h2.86Zm-20.42,25h-8v-8h8v8Zm34,0h-8v-8h8v8Zm0-10h-9c-.55,0-1,.45-1,1v9h-22v-9c0-.55-.45-1-1-1h-9v-2c0-6.64,4.99-12.15,11.49-12.9,1.32,4.1,5.11,6.9,9.51,6.9s8.19-2.79,9.51-6.9c6.5.75,11.49,6.26,11.49,12.9v2Z" style="fill:#231f20;"/><path d="m36,23c.553,0,1-.448,1-1v-1c0-.552-.447-1-1-1s-1,.448-1,1v1c0,.552.447,1,1,1Z" style="fill:#231f20;"/><path d="m28,23c.553,0,1-.448,1-1v-1c0-.552-.447-1-1-1s-1,.448-1,1v1c0,.552.447,1,1,1Z" style="fill:#231f20;"/></svg>