<?xml version="1.0" encoding="UTF-8"?><svg id="Layer_17" xmlns="http://www.w3.org/2000/svg" viewBox="0 0 64 64"><path d="m54,51v-3c0-6.336-4.222-11.68-10-13.404v16.404h10Z" style="fill:#ed1c24;"/><rect x="44" y="51" width="10" height="10" style="fill:#ffac96;"/><rect x="10" y="51" width="10" height="10" style="fill:#ffac96;"/><path d="m20,61h24v-26.404c-1.034-.309-2.111-.515-3.23-.576-.26-.01-.51-.02-.77-.02h-.25c-.89,3.45-4.02,6-7.75,6s-6.86-2.55-7.75-6h-.25c-.26,0-.51.01-.77.02-1.119.061-2.196.267-3.23.576v26.404Z" style="fill:#ffcd00;"/><path d="m45.22,20s.01-.01,0-.01c1.13-1.72,1.78-3.78,1.78-5.99,0-6.08-4.92-11-11-11-3.56,0-6.73,1.69-8.74,4.32-.72-.21-1.47-.32-2.26-.32-4.42,0-8,3.58-8,8,0,1.9.66,3.64,1.76,5.01l26.46-.01Z" style="fill:#8b5e3c;"/><path d="m24.25,34c.89,3.45,4.02,6,7.75,6s6.86-2.55,7.75-6h-15.5Z" style="fill:#ffac96;"/><path d="m20,34.596c-5.778,1.724-10,7.068-10,13.404v3h10v-16.404Z" style="fill:#ed1c24;"/><path d="m44,34.596v3c5.778,1.724,10,7.068,10,13.404v-3c0-6.336-4.222-11.68-10-13.404Z" style="fill:#cf1820;"/><path d="m40.77,34.02c-.26-.01-.51-.02-.77-.02h-.25c-.89,3.45-4.02,6-7.75,6s-6.86-2.55-7.75-6h-.25c-.26,0-.51.01-.77.02-1.119.061-2.196.267-3.23.576v3c1.034-.309,2.111-.515,3.23-.576.26-.01.51-.02.77-.02h.25c.89,3.45,4.02,6,7.75,6s6.86-2.55,7.75-6h.25c.26,0,.51.01.77.02,1.119.061,2.196.267,3.23.576v-3c-1.034-.309-2.111-.515-3.23-.576Z" style="fill:#ebbf00;"/><path d="m10,48v3c0-6.336,4.222-11.68,10-13.404v-3c-5.778,1.724-10,7.068-10,13.404Z" style="fill:#cf1820;"/><path d="m43,19h-1v6h1c1.657,0,3-1.343,3-3,0-.773-.3-1.47-.78-2.002,0,0,0,.002,0,.002,0,0,0-.001,0-.002-.549-.609-1.336-.998-2.22-.998Z" style="fill:#ffac96;"/><path d="m36.851,14.545l-3.164.949c-1.119.336-2.28.506-3.448.506h-5.239c-1.657,0-3,1.343-3,3v5.999c0,5.523,4.477,10,10,10.001,5.523,0,10-4.477,10-9.999h0v-6.625c0-2.679-2.583-4.601-5.149-3.831Z" style="fill:#ffb8a5;"/><path d="m21,19c-1.657,0-3,1.343-3,3s1.343,3,3,3h1v-6h-1Z" style="fill:#ffac96;"/><path d="m27.601,27.7c-.332.442-.242,1.068.199,1.4,1.237.928,2.719,1.392,4.2,1.392s2.963-.464,4.2-1.392c.441-.332.531-.958.199-1.4-.331-.441-.956-.531-1.4-.2-1.766,1.325-4.232,1.325-5.998,0-.442-.332-1.068-.242-1.4.2Z" style="fill:#231f20;"/><path d="m40.81,33.02c-.27-.01-.54-.02-.81-.02h-.47c.08-.08.17-.14.25-.22,1.84-1.84,2.94-4.22,3.17-6.78h.05c2.21,0,4-1.79,4-4,0-.75-.22-1.45-.59-2.06,1.04-1.79,1.59-3.83,1.59-5.94,0-6.62-5.38-12-12-12-3.55,0-6.83,1.52-9.12,4.2-.61-.13-1.24-.2-1.88-.2-4.96,0-9,4.04-9,9,0,1.79.54,3.55,1.54,5.03-.33.59-.54,1.25-.54,1.97,0,2.21,1.79,4,4,4h.05c.25,2.75,1.52,5.21,3.42,7h-.47c-.27,0-.54.01-.82.02-7.95.43-14.18,7.01-14.18,14.98v13c0,.55.45,1,1,1h44c.55,0,1-.45,1-1v-13c0-7.97-6.23-14.55-14.19-14.98Zm2.19-9.02v-4c1.1,0,2,.9,2,2s-.9,2-2,2Zm-22,0c-1.1,0-2-.9-2-2s.9-2,2-2v4Zm.14-6h-.14c-.74,0-1.42.21-2.01.56-.64-1.07-.99-2.28-.99-3.56,0-3.86,3.14-7,7-7,.69,0,1.33.09,1.98.28.4.11.82-.02,1.07-.35,1.91-2.5,4.81-3.93,7.95-3.93,5.51,0,10,4.49,10,10,0,1.59-.39,3.12-1.09,4.5-.57-.31-1.22-.5-1.91-.5h-.02c-.11-1.45-.82-2.76-2-3.64-1.28-.95-2.89-1.23-4.42-.77l-3.16.95c-1.03.3-2.09.46-3.16.46h-5.24c-1.86,0-3.41,1.28-3.86,3Zm1.86,7v-6c0-1.1.9-2,2-2h5.24c1.26,0,2.52-.18,3.73-.55l3.17-.95c.91-.27,1.88-.1,2.65.47.77.57,1.21,1.45,1.21,2.41v6.62c0,1.2-.24,2.36-.68,3.44-.45,1.08-1.11,2.07-1.96,2.92-1.7,1.7-3.96,2.64-6.36,2.64-2.48,0-4.73-1.01-6.36-2.64s-2.64-3.88-2.64-6.36Zm15.32,10c-1.14,2.4-3.58,4-6.32,4s-5.18-1.6-6.32-4h1.77c1.39.64,2.92,1,4.55,1,1.6,0,3.15-.35,4.57-1h1.75Zm-19.32,25h-8v-8h8v8Zm0-10h-8v-2c0-5.39,3.29-10.03,8-11.99v13.99Zm24,10h-22v-24.65c.73-.17,1.49-.29,2.27-.33.08,0,.16,0,.25-.01,1.26,3.56,4.64,5.99,8.48,5.99s7.22-2.43,8.48-5.99c.08.01.16.01.24.01.78.04,1.54.16,2.28.34v24.64Zm10,0h-8v-8h8v8Zm0-10h-8v-13.99c4.71,1.96,8,6.6,8,11.99v2Z" style="fill:#231f20;"/><path d="m36,23c.553,0,1-.448,1-1v-1c0-.552-.447-1-1-1s-1,.448-1,1v1c0,.552.447,1,1,1Z" style="fill:#231f20;"/><path d="m28,23c.553,0,1-.448,1-1v-1c0-.552-.447-1-1-1s-1,.448-1,1v1c0,.552.447,1,1,1Z" style="fill:#231f20;"/></svg>