<?xml version="1.0" encoding="UTF-8"?><svg id="Layer_34" xmlns="http://www.w3.org/2000/svg" viewBox="0 0 64 64"><path d="m19,19.77v-2.954c0-2.535-.311-5.06-.926-7.519l-1.074-4.298h6c2.209,0,4,1.791,4,4v1s0,0,0,0c0-3.866,3.134-7,7-7h15s-.838,1.466-.838,1.466c-2.072,3.626-3.162,7.731-3.162,11.907v3.396h-26Z" style="fill:#ebbf00;"/><polygon points="24 34 32 44 40 34 24 34" style="fill:#ffc0af;"/><rect x="10" y="51" width="10" height="10" style="fill:#ffc0af;"/><path d="m40.77,34.02c-.26-.01-.51-.02-.77-.02l-8,10-8-10c-.26,0-.51.01-.77.02-7.37.4-13.23,6.51-13.23,13.98v3h10v10h24v-10h10v-3c0-7.47-5.86-13.58-13.23-13.98Z" style="fill:#ed1c24;"/><path d="m40.77,34.02c-.26-.01-.51-.02-.77-.02l-8,10-8-10c-.26,0-.51.01-.77.02-7.37.4-13.23,6.51-13.23,13.98v3c0-7.47,5.86-13.58,13.23-13.98.26-.01.51-.02.77-.02l8,10,8-10c.26,0,.51.01.77.02,7.37.4,13.23,6.51,13.23,13.98v-3c0-7.47-5.86-13.58-13.23-13.98Z" style="fill:#cf1820;"/><rect x="44" y="51" width="10" height="10" style="fill:#ffc0af;"/><path d="m43,25c1.657,0,3-1.343,3-3s-1.343-3-3-3h-1v6h1Z" style="fill:#ffc0af;"/><path d="m40,16h-16c-1.105,0-2,.895-2,2v7c0,5.523,4.477,10,10,10s10-4.477,10-10v-7c0-1.105-.895-2-2-2Z" style="fill:#ffcfc3;"/><path d="m21,19c-1.657,0-3,1.343-3,3s1.343,3,3,3h1v-6h-1Z" style="fill:#ffc0af;"/><path d="m27.6,27.7c-.332.442-.242,1.069.2,1.4,1.237.928,2.718,1.392,4.2,1.392s2.964-.464,4.2-1.392c.441-.332.531-.958.199-1.4-.331-.441-.956-.531-1.4-.2-1.766,1.324-4.232,1.324-5.999,0-.442-.332-1.068-.241-1.4.2Z" style="fill:#231f20;"/><path d="m40.81,33.02c-.27-.01-.54-.02-.81-.02h-.47c1.9-1.79,3.17-4.25,3.42-7h.05c2.21,0,4-1.79,4-4,0-1.01-.39-1.91-1-2.62v-3.01c0-3.99,1.05-7.94,3.03-11.41l.84-1.46c.17-.31.17-.69,0-1-.18-.31-.51-.5-.87-.5h-15c-2.98,0-5.58,1.64-6.96,4.06-.91-1.25-2.38-2.06-4.04-2.06h-6c-.31,0-.6.14-.79.38-.19.25-.25.56-.18.86l1.07,4.3c.6,2.38.9,4.83.9,7.28v2.56c-.61.71-1,1.61-1,2.62,0,2.21,1.79,4,4,4h.05c.25,2.75,1.52,5.21,3.42,7h-.47c-.27,0-.54.01-.82.02-7.95.43-14.18,7.01-14.18,14.98v13c0,.55.45,1,1,1h44c.55,0,1-.45,1-1v-13c0-7.97-6.23-14.55-14.19-14.98Zm2.19-9.02v-4c1.1,0,2,.9,2,2s-.9,2-2,2Zm-22,0c-1.1,0-2-.9-2-2s.9-2,2-2v4Zm0-6c-.35,0-.68.06-1,.14v-1.32c0-2.62-.32-5.23-.96-7.76l-.76-3.06h4.72c1.65,0,3,1.35,3,3v1c0,.55.45,1,1,1s1-.45,1-1c0-3.31,2.69-6,6-6h13.28c-2.15,3.76-3.28,8.04-3.28,12.37v1.77c-.32-.08-.65-.14-1-.14,0-1.65-1.35-3-3-3h-16c-1.65,0-3,1.35-3,3Zm2,7v-7c0-.55.45-1,1-1h16c.55,0,1,.45,1,1v7c0,4.96-4.04,9-9,9s-9-4.04-9-9Zm14.92,10l-5.92,7.4-5.92-7.4h1.36c1.39.64,2.93,1,4.56,1s3.17-.36,4.56-1h1.36Zm-18.92,25h-8v-8h8v8Zm34,0h-8v-8h8v8Zm0-10h-9c-.55,0-1,.45-1,1v9h-22v-9c0-.55-.45-1-1-1h-9v-2c0-6.91,5.4-12.61,12.27-12.98.09,0,.17,0,.26-.01l7.69,9.61c.19.24.48.38.78.38s.59-.14.78-.38l7.69-9.61c.08.01.17.01.25.01,6.88.37,12.28,6.07,12.28,12.98v2Z" style="fill:#231f20;"/><path d="m36,23c.553,0,1-.448,1-1v-1c0-.552-.447-1-1-1s-1,.448-1,1v1c0,.552.447,1,1,1Z" style="fill:#231f20;"/><path d="m28,23c.552,0,1-.448,1-1v-1c0-.552-.448-1-1-1s-1,.448-1,1v1c0,.552.448,1,1,1Z" style="fill:#231f20;"/></svg>