<?xml version="1.0" encoding="UTF-8"?><svg id="Layer_21" xmlns="http://www.w3.org/2000/svg" viewBox="0 0 64 64"><polygon points="18.85 19.91 16 3 48 3 45.15 19.91 18.85 19.91" style="fill:#ff9811;"/><path d="m36.35,34h3.65c.26,0,.51.01.77.02,1.02.06,2.02.22,2.97.49-1.16,5.42-5.97,9.49-11.74,9.49s-10.58-4.07-11.74-9.49c.95-.27,1.95-.43,2.97-.49.26-.01.51-.02.77-.02h3.65c1.31.64,2.79,1,4.35,1s3.04-.36,4.35-1Z" style="fill:#ffb8a5;"/><rect x="10" y="51" width="10" height="10" style="fill:#ffbcab;"/><rect x="44" y="51" width="10" height="10" style="fill:#ffbcab;"/><path d="m43.738,34.516c-1.162,5.417-5.971,9.484-11.738,9.484s-10.576-4.067-11.738-9.484c-5.912,1.638-10.262,7.052-10.262,13.484v3h10v10h24v-10h10v-3c0-6.432-4.349-11.846-10.262-13.484Z" style="fill:#6d6e71;"/><path d="m43.738,34.516c-1.162,5.417-5.971,9.484-11.738,9.484s-10.576-4.067-11.738-9.484c-5.912,1.638-10.262,7.052-10.262,13.484v3c0-4.648,2.271-8.765,5.763-11.309,1.923-1.402,4.635-.798,5.819,1.266,2.07,3.609,5.957,6.043,10.419,6.043s8.349-2.433,10.419-6.043c1.184-2.064,3.895-2.668,5.819-1.266,3.491,2.544,5.763,6.66,5.763,11.309v-3c0-6.432-4.349-11.846-10.262-13.484Z" style="fill:#58595b;"/><path d="m43,25c1.657,0,3-1.343,3-3s-1.343-3-3-3h-1v6h1Z" style="fill:#ffb8a5;"/><path d="m22,16v9c0,5.523,4.477,10,10,10s10-4.477,10-10v-9h-20Z" style="fill:#ffbcab;"/><path d="m21,19c-1.657,0-3,1.343-3,3s1.343,3,3,3h1v-6h-1Z" style="fill:#ffb8a5;"/><path d="m27.6,27.7c-.332.442-.242,1.069.2,1.4,1.236.928,2.718,1.391,4.2,1.391s2.964-.463,4.2-1.391c.442-.331.531-.958.2-1.4-.33-.44-.956-.532-1.4-.2-1.767,1.324-4.233,1.324-6,0-.442-.333-1.069-.241-1.4.2Z" style="fill:#231f20;"/><path d="m40.81,33.02c-.27-.01-.54-.02-.81-.02h-.47c1.9-1.79,3.17-4.25,3.42-7h.05c2.21,0,4-1.79,4-4,0-.89-.3-1.7-.79-2.36l2.78-16.47c.05-.29-.04-.59-.23-.82-.19-.22-.47-.35-.76-.35H16c-.29,0-.57.13-.76.35-.19.23-.28.53-.23.82l2.78,16.47c-.49.66-.79,1.47-.79,2.36,0,2.21,1.79,4,4,4h.05c.25,2.75,1.52,5.21,3.42,7h-.47c-.27,0-.54.01-.82.02-7.95.43-14.18,7.01-14.18,14.98v13c0,.55.45,1,1,1h44c.55,0,1-.45,1-1v-13c0-7.97-6.23-14.55-14.19-14.98Zm2.19-9.02v-4c1.1,0,2,.9,2,2s-.9,2-2,2Zm-22,0c-1.1,0-2-.9-2-2s.9-2,2-2v4Zm0-8v2c-.5,0-.97.1-1.41.27l-2.41-14.27h29.64l-2.41,14.27c-.44-.17-.91-.27-1.41-.27v-2c0-.55-.45-1-1-1h-20c-.55,0-1,.45-1,1Zm2,9v-8h18v8c0,4.96-4.04,9-9,9s-9-4.04-9-9Zm.27,10.02c.25-.01.48-.02.73-.02h3.44c1.39.64,2.93,1,4.56,1s3.17-.36,4.56-1h3.44c.25,0,.48.01.72.02.61.03,1.2.12,1.79.24-1.41,4.54-5.68,7.74-10.51,7.74s-9.1-3.2-10.51-7.75c.58-.11,1.17-.2,1.78-.23Zm-4.27,24.98h-8v-8h8v8Zm34,0h-8v-8h8v8Zm0-10h-9c-.55,0-1,.45-1,1v9h-22v-9c0-.55-.45-1-1-1h-9v-2c0-5.6,3.55-10.41,8.56-12.22,1.65,5.4,6.71,9.22,12.44,9.22s10.79-3.82,12.44-9.22c5.01,1.82,8.56,6.62,8.56,12.22v2Z" style="fill:#231f20;"/><path d="m36,23c.552,0,1-.448,1-1v-1c0-.552-.448-1-1-1s-1,.448-1,1v1c0,.552.448,1,1,1Z" style="fill:#231f20;"/><path d="m28,23c.552,0,1-.448,1-1v-1c0-.552-.448-1-1-1s-1,.448-1,1v1c0,.552.448,1,1,1Z" style="fill:#231f20;"/></svg>