<?xml version="1.0" standalone="no"?>
<!DOCTYPE svg PUBLIC "-//W3C//DTD SVG 20010904//EN"
 "http://www.w3.org/TR/2001/REC-SVG-20010904/DTD/svg10.dtd">
<svg version="1.0" xmlns="http://www.w3.org/2000/svg"
 width="524.000000pt" height="524.000000pt" viewBox="0 0 524.000000 524.000000"
 preserveAspectRatio="xMidYMid meet">
<metadata>
Created by potrace 1.14, written by Peter Selinger 2001-2017
</metadata>
<g transform="translate(0.000000,524.000000) scale(0.100000,-0.100000)"
fill="#000000" stroke="none">
<path d="M2335 5205 c-49 -7 -103 -15 -120 -19 -16 -3 -48 -8 -70 -12 -22 -3
-43 -8 -46 -10 -3 -2 -21 -6 -40 -9 -41 -7 -196 -51 -236 -66 -15 -6 -35 -12
-43 -14 -16 -3 -143 -50 -175 -64 -223 -99 -274 -127 -430 -229 -98 -65 -219
-159 -304 -237 -185 -167 -390 -416 -496 -600 -16 -27 -32 -52 -35 -55 -4 -3
-38 -70 -78 -150 -70 -143 -166 -407 -188 -517 -1 -6 -11 -53 -23 -105 -43
-190 -50 -270 -46 -533 3 -232 6 -293 20 -353 3 -13 8 -43 11 -65 14 -109 96
-382 155 -514 10 -24 19 -45 19 -48 0 -17 143 -289 166 -316 8 -8 14 -19 14
-23 0 -12 115 -178 181 -261 123 -156 343 -363 531 -502 100 -73 353 -213 508
-281 152 -66 359 -129 485 -148 16 -2 37 -6 45 -9 8 -2 33 -7 55 -10 22 -4 51
-8 65 -11 147 -27 548 -26 705 1 17 3 46 7 65 9 19 3 35 6 35 7 0 1 9 3 20 4
11 2 31 5 45 8 14 4 39 9 55 12 109 21 316 89 465 152 143 61 389 194 398 216
2 4 8 7 13 7 16 0 188 130 281 212 122 107 240 229 315 325 15 20 36 45 46 55
9 10 17 22 17 27 0 5 4 11 9 13 34 13 291 447 291 493 0 8 5 15 12 15 6 0 9 3
5 6 -3 4 0 18 7 33 39 75 140 417 171 576 19 98 27 570 12 695 -10 88 -43 257
-71 365 -52 204 -173 483 -292 677 -51 81 -138 209 -169 245 -5 7 -14 18 -20
25 -180 232 -453 472 -713 625 -227 134 -550 263 -769 308 -15 3 -37 8 -48 10
-52 12 -75 16 -145 26 -41 6 -86 13 -100 16 -62 11 -481 9 -565 -2z m553 -269
c6 -6 3 -7 -68 -10 -110 -6 -208 -36 -268 -84 -46 -37 -85 -109 -84 -156 1
-40 38 -109 76 -144 25 -22 113 -73 136 -78 3 0 12 -3 20 -7 36 -14 145 -48
211 -67 l71 -19 52 57 c97 107 241 250 285 281 55 39 109 54 183 53 73 -2 115
-20 173 -73 82 -75 145 -236 170 -434 2 -16 7 -46 10 -65 13 -79 16 -111 20
-234 3 -71 6 -130 7 -132 9 -8 -7 -578 -16 -593 -2 -3 -7 -35 -11 -71 -4 -36
-9 -68 -11 -72 -5 -8 57 -58 146 -119 36 -24 85 -60 111 -79 92 -70 124 -95
135 -105 6 -5 41 -36 78 -69 58 -51 193 -184 221 -218 6 -7 30 -38 53 -68 23
-30 47 -60 52 -67 6 -7 10 -16 10 -22 0 -5 4 -11 8 -13 27 -10 119 -203 173
-358 l30 -86 -56 -129 c-69 -160 -152 -319 -178 -342 -19 -18 -19 -17 -12 7
51 162 53 347 4 492 -23 70 -99 232 -123 263 -16 20 -17 19 -47 -15 -114 -130
-348 -433 -605 -787 l-162 -222 35 -7 c38 -7 503 2 543 10 13 3 40 8 60 11 19
3 63 14 98 24 34 11 62 16 62 13 0 -4 -15 -23 -33 -44 -17 -20 -66 -75 -107
-121 -70 -81 -77 -86 -125 -93 -83 -12 -92 -13 -315 -13 -237 0 -273 3 -435
34 -67 13 -269 66 -286 76 -11 5 -19 7 -19 5 0 -15 -515 180 -547 206 -7 6
-13 8 -13 6 0 -3 -56 23 -124 56 -138 69 -129 69 -188 -5 -46 -57 -200 -212
-298 -301 -132 -118 -349 -254 -477 -300 -75 -26 -211 -32 -273 -11 -96 33
-195 121 -235 208 -59 129 -73 256 -65 582 l2 91 -36 33 c-20 17 -49 41 -64
53 -15 11 -31 25 -37 32 -5 6 -44 39 -85 75 -41 35 -81 70 -89 78 -8 7 -29 19
-45 26 -25 11 -35 11 -57 0 -35 -19 -63 -79 -63 -137 0 -27 -2 -48 -4 -48 -1
0 -16 28 -32 62 -80 174 -79 243 4 316 77 67 203 49 321 -46 49 -39 128 -106
145 -122 8 -8 30 -26 49 -39 32 -23 46 -20 52 12 1 4 2 10 3 15 3 11 56 184
65 212 37 110 37 109 4 138 -363 322 -514 501 -643 760 -52 105 -88 200 -85
227 2 21 58 193 82 249 34 81 154 326 160 326 2 0 2 -8 -1 -17 -3 -10 -7 -29
-10 -43 -3 -14 -7 -34 -9 -45 -37 -170 -39 -318 -6 -450 13 -51 59 -165 68
-165 3 0 23 35 44 78 45 92 95 186 121 227 41 65 71 110 76 115 3 3 23 30 45
60 117 164 338 397 502 528 l101 82 -18 37 c-43 90 -70 150 -79 175 -12 31 -9
32 -121 -15 -131 -55 -286 -140 -475 -263 l-30 -19 31 40 c59 75 246 256 336
325 89 69 226 157 303 195 22 11 42 23 45 26 8 8 70 32 74 28 2 -2 7 -30 10
-61 13 -110 51 -228 109 -338 24 -47 116 -194 140 -225 21 -28 64 -86 82 -111
11 -15 25 -32 30 -38 6 -6 26 -31 46 -56 80 -99 102 -118 159 -133 30 -8 109
-31 175 -50 178 -51 181 -52 201 -29 9 11 38 59 64 108 26 49 56 103 66 120
39 65 86 141 129 209 35 54 42 72 32 80 -6 7 -63 28 -124 49 -221 72 -341 151
-409 270 -52 92 -63 211 -28 306 20 52 77 128 108 140 22 10 504 5 514 -4z
m1212 -497 c57 -44 91 -73 150 -129 48 -46 51 -54 66 -175 12 -105 22 -216 29
-334 4 -57 8 -111 11 -120 2 -9 8 -33 13 -53 12 -53 65 -131 118 -178 82 -71
181 -71 236 2 23 30 45 99 38 123 -2 7 1 7 7 0 5 -5 28 -57 52 -114 48 -120
48 -147 -2 -205 -46 -55 -89 -73 -187 -80 -99 -8 -234 51 -328 144 -35 34 -63
65 -63 70 0 5 -6 15 -13 22 -19 19 -68 126 -84 183 -7 28 -16 97 -18 155 -13
318 -18 382 -41 510 -15 86 -21 110 -38 159 -20 54 -21 77 -3 64 6 -5 32 -25
57 -44z m-1502 -3603 c26 -3 54 -7 62 -9 8 -2 29 -7 45 -11 206 -51 377 -201
415 -364 l12 -53 49 6 c26 3 113 21 194 39 153 34 169 33 70 -4 -33 -12 -82
-31 -110 -42 -27 -10 -57 -21 -65 -23 -42 -10 -219 -46 -250 -51 -67 -9 -105
-15 -133 -20 l-28 -6 22 41 c28 55 20 96 -30 149 -106 111 -267 156 -458 127
-43 -6 -98 -29 -224 -92 -142 -70 -146 -76 -74 -108 32 -14 59 -25 61 -25 2 0
23 -9 47 -19 23 -11 70 -29 105 -42 34 -12 62 -23 62 -25 0 -4 -84 6 -175 22
-24 4 -108 23 -170 38 -93 23 -279 87 -283 98 -2 4 -9 8 -16 8 -17 0 -66 23
-66 32 0 6 197 109 420 219 130 65 242 105 315 115 28 3 51 7 52 8 4 3 92 -2
151 -8z"/>
<path d="M3460 4525 c-63 -34 -246 -238 -386 -429 -41 -55 -78 -105 -82 -111
-22 -30 -92 -146 -92 -154 0 -5 -3 -11 -7 -13 -5 -1 -16 -19 -27 -38 -10 -19
-38 -73 -63 -119 -28 -52 -41 -87 -36 -92 6 -6 77 -34 159 -64 82 -30 158 -59
169 -64 11 -5 70 -31 130 -57 61 -25 175 -78 254 -116 79 -38 146 -67 149 -64
3 3 6 23 8 43 2 21 3 38 4 38 16 0 20 674 4 790 -25 188 -28 205 -56 314 -34
132 -68 168 -128 136z"/>
<path d="M1618 3958 c-7 -7 -56 -47 -108 -89 -292 -236 -558 -595 -721 -977
l-20 -46 195 -193 c108 -106 202 -193 209 -193 7 0 34 44 61 98 139 280 236
426 316 477 89 56 197 62 365 19 33 -9 67 -17 75 -19 76 -17 478 -165 596
-221 262 -122 310 -257 205 -573 -36 -106 -57 -162 -81 -216 -61 -136 -135
-283 -168 -339 -23 -37 -42 -70 -42 -73 0 -2 -7 -11 -15 -19 -8 -9 -15 -19
-15 -23 0 -4 71 -41 159 -83 l159 -75 89 121 c50 66 110 150 134 186 24 36 49
71 56 78 7 7 13 17 13 22 0 5 6 15 13 22 35 37 166 266 248 433 109 224 250
625 235 672 -7 22 -346 194 -516 262 -30 12 -64 26 -75 31 -31 15 -298 110
-320 114 -11 3 -63 18 -115 34 -104 33 -172 53 -360 106 -69 19 -143 42 -165
52 -53 22 -166 138 -288 297 -55 70 -100 127 -102 127 -2 0 -10 -6 -17 -12z"/>
<path d="M1683 2854 c-18 -9 -33 -20 -33 -23 0 -4 -9 -17 -20 -28 -10 -12 -36
-50 -58 -85 -155 -255 -291 -618 -371 -990 -31 -145 -36 -202 -36 -433 l1
-210 31 -65 c62 -126 151 -148 301 -72 82 41 223 131 274 174 14 13 43 37 65
54 51 42 176 167 240 240 153 175 285 385 392 624 90 200 96 214 132 322 16
48 29 101 29 117 0 41 -43 88 -104 116 -130 59 -151 68 -161 69 -5 2 -26 9
-45 18 -54 23 -296 108 -309 108 -6 0 -19 4 -29 10 -26 14 -182 59 -227 64
-26 4 -51 0 -72 -10z"/>
<path d="M3787 2823 c-3 -5 -12 -36 -21 -70 -37 -141 -139 -410 -218 -572 -94
-193 -339 -597 -410 -675 -10 -11 -41 -53 -68 -94 -38 -57 -48 -77 -38 -83 14
-9 250 -88 336 -113 29 -8 59 -13 67 -10 8 4 32 29 52 58 21 28 41 56 46 61 4
6 37 51 72 100 95 134 108 152 179 250 36 50 72 99 80 110 53 73 201 271 206
275 3 3 43 53 88 112 46 59 88 113 95 120 7 7 27 32 44 54 l33 41 -84 80 c-68
65 -148 134 -266 226 -25 20 -123 91 -157 115 -17 12 -34 19 -36 15z"/>
</g>
</svg>
