<?xml version="1.0" standalone="no"?>
<!DOCTYPE svg PUBLIC "-//W3C//DTD SVG 20010904//EN"
    "http://www.w3.org/TR/2001/REC-SVG-20010904/DTD/svg10.dtd">
<svg xmlns="http://www.w3.org/2000/svg" version="1.0" preserveAspectRatio="xMidYMid meet" viewBox="118.05 118.81 262.36 260.56">
    <g transform="translate(0.000000,500.000000) scale(0.048780,-0.048780)" fill="#2563EB" stroke="none">
        <path
            d="M4940 7810 c-306 -17 -695 -121 -1005 -269 -566 -270 -1038 -764 -1299 -1358 -91 -206 -176 -520 -206 -763 -15 -125 -13 -477 5 -606 62 -476 270 -955 581 -1344 88 -110 295 -317 404 -403 268 -214 622 -398 945 -492 106 -30 309 -71 425 -84 552 -65 1113 46 1615 320 474 258 882 684 1129 1177 96 193 200 521 242 762 21 128 30 481 15 634 -76 783 -499 1496 -1161 1958 -145 102 -381 225 -560 293 -368 139 -737 197 -1130 175z m445 -287 c23 -7 11 -10 -58 -10 -127 -2 -260 -46 -314 -105 -28 -30 -63 -106 -63 -138 0 -42 45 -124 86 -157 66 -52 118 -74 328 -138 98 -31 120 -35 130 -23 7 7 54 61 105 120 104 120 212 217 281 251 60 29 177 31 233 3 155 -77 223 -236 274 -638 25 -198 25 -733 0 -919 -11 -76 -20 -144 -20 -152 -1 -8 48 -47 118 -94 240 -159 489 -377 625 -548 126 -159 196 -285 259 -470 l41 -116 -68 -157 c-68 -159 -134 -285 -178 -338 l-23 -29 19 57 c47 137 51 340 10 473 -26 81 -85 212 -124 273 l-27 43 -62 -74 c-126 -150 -326 -408 -481 -622 -87 -121 -185 -256 -218 -300 l-59 -80 33 -8 c18 -5 143 -7 278 -4 250 5 381 22 478 63 19 8 37 13 39 11 2 -2 -48 -63 -112 -135 l-115 -130 -73 -14 c-48 -8 -151 -13 -307 -12 -194 0 -257 4 -360 22 -325 56 -729 193 -1080 365 -80 39 -147 73 -150 74 -3 1 -25 -25 -50 -58 -69 -92 -344 -356 -448 -429 -114 -80 -292 -180 -363 -204 -30 -10 -92 -21 -139 -23 -101 -6 -164 14 -253 77 -152 109 -205 290 -194 660 l5 186 -56 45 c-32 26 -109 93 -173 151 -64 58 -127 108 -142 112 -67 16 -120 -49 -120 -148 l0 -61 -38 83 c-79 171 -79 241 -2 314 78 74 200 63 323 -30 19 -15 81 -66 137 -114 55 -49 106 -88 112 -88 5 0 15 19 21 43 6 23 32 109 57 192 l45 150 -63 55 c-321 280 -505 498 -627 745 -27 55 -59 129 -71 165 l-21 66 29 94 c15 52 42 130 59 172 36 88 161 342 167 337 2 -2 -3 -29 -11 -59 -64 -245 -58 -462 19 -624 l33 -70 68 137 c37 74 88 169 114 209 151 238 416 536 611 688 46 36 92 72 103 80 18 14 17 19 -32 116 -27 56 -50 109 -50 117 0 25 -18 30 -53 16 -174 -69 -335 -153 -499 -262 l-97 -64 32 41 c61 78 239 255 318 318 119 93 238 171 359 232 l107 55 12 -92 c29 -222 131 -412 405 -759 47 -59 97 -115 112 -125 21 -13 283 -89 415 -119 25 -6 30 0 89 113 75 139 121 216 202 337 33 48 56 92 51 96 -4 5 -62 25 -128 46 -209 65 -325 133 -401 237 -110 149 -109 328 1 463 28 33 44 44 73 47 64 8 475 0 507 -10z m1347 -597 l96 -87 11 -67 c20 -121 32 -240 40 -400 10 -186 26 -236 100 -328 63 -78 121 -108 192 -102 75 8 119 56 134 147 l7 44 49 -112 c27 -61 49 -121 49 -132 0 -27 -33 -89 -62 -116 -52 -49 -158 -71 -254 -54 -153 29 -295 143 -373 302 -55 112 -71 192 -71 365 0 230 -35 498 -81 618 -10 28 -19 55 -19 59 0 14 82 -48 182 -137z m-1632 -3616 c96 -13 212 -51 286 -96 123 -74 226 -206 240 -308 4 -25 8 -46 10 -46 19 0 286 54 339 69 38 11 71 18 73 16 4 -4 -179 -75 -268 -105 -55 -18 -221 -50 -387 -74 l-43 -6 25 36 c34 50 32 84 -8 135 -81 106 -213 162 -382 162 -77 0 -115 -5 -165 -22 -80 -28 -322 -153 -312 -162 13 -11 202 -90 286 -120 l81 -29 -60 6 c-180 18 -433 83 -598 154 -87 38 -105 47 -96 53 2 1 54 27 114 58 61 30 185 94 277 142 260 134 385 163 588 137z"></path>
        <path
            d="M5959 7092 c-95 -61 -357 -372 -501 -597 -57 -89 -208 -359 -208 -373 0 -6 51 -27 113 -48 160 -53 405 -155 600 -251 92 -45 171 -84 175 -85 27 -11 51 546 33 782 -21 284 -72 523 -123 577 -27 29 -35 29 -89 -5z"></path>
        <path
            d="M3985 6441 c-293 -235 -562 -586 -719 -937 l-53 -119 27 -35 c36 -46 378 -380 388 -379 4 0 44 75 89 167 93 189 181 331 246 395 89 89 214 108 404 62 192 -46 554 -177 743 -269 110 -53 189 -129 215 -205 29 -89 17 -206 -38 -366 -83 -239 -189 -465 -293 -628 l-44 -67 103 -47 c56 -26 130 -61 164 -79 l63 -31 109 146 c352 473 546 848 678 1309 34 119 35 123 17 137 -31 24 -371 191 -484 238 -254 107 -472 180 -860 287 -244 67 -263 75 -327 133 -51 47 -211 240 -278 334 -17 24 -32 43 -35 43 -3 0 -55 -40 -115 -89z"></path>
        <path
            d="M4154 5390 c-71 -28 -231 -315 -344 -617 -92 -245 -170 -549 -190 -742 -13 -134 -13 -371 1 -447 23 -127 96 -205 195 -207 37 0 68 11 157 56 309 156 645 494 849 852 129 226 298 628 298 706 0 52 -26 87 -88 118 -135 68 -462 189 -701 260 -107 32 -141 36 -177 21z"></path>
        <path
            d="M6300 5335 c-5 -14 -10 -31 -10 -36 0 -21 -94 -299 -137 -404 -122 -302 -319 -638 -568 -972 -35 -49 -64 -92 -63 -98 3 -12 107 -49 293 -105 123 -38 130 -39 146 -22 9 9 119 161 244 337 125 176 289 399 363 495 164 211 162 209 236 299 l59 72 -64 65 c-102 104 -237 215 -436 358 l-53 38 -10 -27z"></path>
    </g>
</svg>
